# xmcd
#
# Track frame offsets:
#	150
#	20785
#	45617
#	64277
#	77802
#	97335
#	123070
#	140952
#	162402
#	180810
#	207825
#	234172
#
# Disc length: 3272 seconds
#
# Revision: 3
# Processed by: cddbd v1.5.1PL0 Copyright (c) Steve Scherf et al.
# Submitted via: MusicManager 7.0.6.0 
#
DISCID=a40cc60c
DTITLE=Johnny Winter - The Winter Of '88
DYEAR=1988
DGENRE=
TTITLE0=Close to Me
TTITLE1=Rain
TTITLE2=Stranger Blues
TTITLE3=Ain't That Just Like a Woman
TTITLE4=World of Contradictions
TTITLE5=Lightning
TTITLE6=Looking for Trouble
TTITLE7=Show Me
TTITLE8=Anything for Your Love
TTITLE9=Look Away
TTITLE10=Mother Earth
TTITLE11=It'll Be Me
EXTD=
EXTT0=
EXTT1=
EXTT2=
EXTT3=
EXTT4=
EXTT5=
EXTT6=
EXTT7=
EXTT8=
EXTT9=
EXTT10=
EXTT11=
PLAYORDER=
